<svg id="Capa_1" enable-background="new 0 0 512 512" height="512" viewBox="0 0 512 512" width="512" xmlns="http://www.w3.org/2000/svg"><path d="m424.592 0h-337.184c-5.523 0-10 4.477-10 10v253.548c0 5.522 4.477 10 10 10h35.773v54.865c0 36.355 29.578 65.934 65.935 65.934h9.183v14.384c0 32.984-5.825 54.101-18.064 86.274l-1.309 3.439c-1.169 3.073-.753 6.525 1.113 9.232 1.867 2.707 4.945 4.323 8.233 4.323h135.455c3.288 0 6.366-1.616 8.233-4.323 1.866-2.708 2.283-6.159 1.113-9.232l-1.308-3.439c-12.239-32.174-18.064-53.29-18.064-86.274v-14.384h9.183c36.357 0 65.935-29.578 65.935-65.934v-54.865h35.773c5.523 0 10-4.478 10-10v-253.548c0-5.523-4.477-10-10-10zm-10 20v38.324h-111.112c-.247 0-.492.009-.735.027-14.432-6.636-30.216-10.295-46.745-10.295s-32.313 3.659-46.746 10.295c-.243-.018-.488-.027-.735-.027h-111.111v-38.324zm-317.184 233.548v-175.224h81.567c-28.579 25.573-46.932 65.024-46.932 109.207 0 18.55 3.429 44.793 10.824 66.017zm211.905 238.452h-106.625c10.36-28.66 15.611-51.06 15.611-83.27v-14.384h75.402v14.384c0 32.208 5.253 54.612 15.612 83.27zm59.506-163.587c0 25.328-20.606 45.934-45.935 45.934h-133.768c-25.329 0-45.935-20.605-45.935-45.934v-9.207h225.638zm0-29.207h-225.638v-25.658h14.556c.145.003.291.003.437 0h52.586c5.523 0 10-4.478 10-10 0-5.523-4.477-10-10-10h-46.48c-8.046-18.816-12.238-46.535-12.238-66.017 0-65.879 46.635-119.476 103.958-119.476s103.957 53.597 103.957 119.476c0 19.481-4.192 47.2-12.238 66.017h-46.481c-5.523 0-10 4.477-10 10 0 5.522 4.477 10 10 10h52.617c.062.001.124.002.186.002.064 0 .127-.001.19-.002h14.587v25.658zm45.773-45.658h-45.458c7.395-21.223 10.824-47.466 10.824-66.017 0-44.183-18.353-83.634-46.932-109.207h81.567v175.224z"/><path d="m255.82 273.55c-4.114 0-7.903-2.624-9.351-6.468-1.451-3.851-.356-8.337 2.754-11.049 3.195-2.786 7.909-3.247 11.592-1.146 3.666 2.092 5.643 6.483 4.805 10.613-.935 4.611-5.077 8.05-9.8 8.05z"/></svg>