<svg height="512pt" viewBox="-106 0 512 512" width="512pt" xmlns="http://www.w3.org/2000/svg"><path d="m250 262h-7.785156l11.976562-28.058594c.523438-1.230468.808594-2.601562.808594-3.941406v-200c0-16.542969-13.457031-30-30-30h-150c-16.542969 0-30 13.457031-30 30v200c0 1.34375.277344 2.707031.808594 3.941406l11.976562 28.058594h-7.785156c-27.570312 0-50 22.429688-50 50v150c0 27.570312 22.429688 50 50 50h200c27.570312 0 50-22.429688 50-50v-150c0-27.570312-22.429688-50-50-50zm-185-82h170v40h-170zm170-20h-130v-31c0-5.511719-4.488281-10-10-10s-10 4.488281-10 10v31h-20v-100h170zm-35 182h-100v-20h100zm-102.363281 20h104.726562l24.542969 90h-153.8125zm105.757812-60h-106.789062l-26.464844-62h159.71875zm-138.394531-272c0-5.515625 4.484375-10 10-10h150c5.515625 0 10 4.484375 10 10v10h-170zm-45 432v-150c0-16.542969 13.457031-30 30-30h16.320312l13.679688 32.046875v36.613281l-29.648438 108.707032c-.230468.851562-.351562 1.75-.351562 2.632812v30c-16.542969 0-30-13.457031-30-30zm50 30v-20h160v20zm210-30c0 16.542969-13.457031 30-30 30 0 0 0-29.992188 0-30 0-.441406 0-1-.351562-2.632812l-29.648438-108.707032v-36.613281l13.679688-32.046875h16.320312c16.542969 0 30 13.457031 30 30zm0 0"/><path d="m95 99c5.511719 0 10-4.488281 10-10s-4.488281-10-10-10-10 4.488281-10 10 4.488281 10 10 10zm0 0"/><path d="m140 392c0 5.523438-4.476562 10-10 10s-10-4.476562-10-10 4.476562-10 10-10 10 4.476562 10 10zm0 0"/><path d="m180 392c0 5.523438-4.476562 10-10 10s-10-4.476562-10-10 4.476562-10 10-10 10 4.476562 10 10zm0 0"/></svg>